<?xml version="1.0" encoding="utf-8"?>
<svg viewBox="4.351 14.503 495.649 485.497" xmlns="http://www.w3.org/2000/svg">
  <g id="5099" fill="#ffffff" transform="matrix(4.858094, 0, 0, 4.858094, 14.128883, 36.208214)" style="">
    <rect width="98" height="91" rx="8" style=""/>
    <path d="M 21.717 75.727 L 21.715 74.078 L 23.757 74.078 C 26.053 74.078 27.68 73.26 28.639 71.625 C 29.225 70.644 29.515 68.445 29.51 65.027 L 29.455 25.972 C 29.45 22.197 29.073 19.834 28.324 18.883 C 27.281 17.575 25.732 16.921 23.677 16.921 L 21.635 16.921 L 21.632 15.272 L 43.734 15.272 C 51.849 15.272 58.023 16.298 62.257 18.349 C 66.49 20.399 69.898 23.817 72.481 28.603 C 75.064 33.388 76.36 38.916 76.368 45.187 C 76.38 53.598 74.094 60.628 69.511 66.276 C 64.368 72.576 56.525 75.727 45.981 75.727 L 21.717 75.727 Z M 37.206 71.358 C 40.597 72.19 43.441 72.606 45.737 72.606 C 51.93 72.606 57.065 70.184 61.142 65.339 C 65.219 60.495 67.252 53.926 67.24 45.634 C 67.228 37.282 65.177 30.698 61.086 25.883 C 56.995 21.068 51.747 18.66 45.34 18.66 C 42.938 18.66 40.203 19.091 37.134 19.953 L 37.206 71.358 Z" style="white-space: pre; fill: rgb(20, 125, 108);"/>
  </g>
</svg>