<?xml version="1.0" encoding="utf-8"?>
<svg viewBox="0 0 500 500" xmlns="http://www.w3.org/2000/svg">
  <defs>
    <linearGradient id="SvgLinearGradient">
      <stop id="5106" stop-color="#43a047" offset="0"/>
      <stop id="5107" stop-color="#5bbb60" offset="1"/>
    </linearGradient>
  </defs>
  <g id="5099" fill="url(#SvgLinearGradient)" transform="matrix(1, 0, 0, 1, 44.38858, 204.5)">
    <rect width="98" height="91" rx="8" style=""/>
  </g>
  <g id="5101" transform="matrix(1.616777, 0, 0, 1.616777, 161.681351, 207.866577)" fill="url(#SvgLinearGradient)" style="">
    <path d="M12.32 18.84 c4.72 0 10.88 3.56 10.88 10.84 s-6.16 10.72 -10.88 10.72 s-10.92 -3.44 -10.92 -10.72 s6.2 -10.84 10.92 -10.84 z M12.32 23.92 c-2.6 0 -5.36 1.96 -5.36 5.76 c0 3.68 2.76 5.64 5.36 5.64 c2.56 0 5.36 -1.96 5.36 -5.64 c0 -3.8 -2.8 -5.76 -5.36 -5.76 z M36.84 18.84 c3.8 0 7 1.64 8.96 5 l-4.4 2.04 c-1.12 -1.12 -2.2 -1.96 -4.48 -1.96 c-2.6 0 -5.36 1.96 -5.36 5.72 c0 3.72 2.76 5.64 5.36 5.64 c2.28 0 3.36 -0.8 4.48 -1.92 l4.44 2.04 c-2 3.36 -5.12 4.92 -9 4.92 c-4.64 0 -10.84 -3.36 -10.84 -10.68 c0 -7.24 6.2 -10.8 10.84 -10.8 z M60.60000000000001 18.84 c4.76 0 10.28 3.56 10.28 10.72 c0 7.4 -5.52 10.84 -10.28 10.84 c-3.6 0 -5.64 -2.12 -5.76 -2.96 l0 2.56 l-5.72 0 l0 -20.8 l0 -7.48 l5.72 0 l0 9.8 c0.12 -0.44 2.16 -2.68 5.76 -2.68 z M59.800000000000004 35.32 c2.88 0 5.52 -1.96 5.52 -5.76 c0 -3.68 -2.64 -5.64 -5.52 -5.64 c-2.8 0 -5.24 1.92 -5.24 5.64 c0 3.84 2.44 5.76 5.24 5.76 z M81.96000000000001 40.32 c-3.96 0 -7.88 -2.6 -7.88 -9.16 l0 -11.96 l5.72 0 l0 11.56 c0 3.4 1.32 4.56 3.52 4.56 c3.04 0 4.84 -2.88 5.28 -4.32 l0 -11.8 l5.72 0 l0 20.8 l-5.72 0 l0 -3.84 c-0.4 1.08 -2.64 4.16 -6.64 4.16 z M104.2 11.719999999999999 l0 4.88 l-5.72 0 l0 -4.88 l5.72 0 z M104.2 19.2 l0 20.8 l-5.72 0 l0 -20.8 l5.72 0 z M114.08 11.719999999999999 l0 28.28 l-5.72 0 l0 -28.28 l5.72 0 z M133.6 11.719999999999999 l5.72 0 l0 10.6 l0 17.68 l-5.72 0 l0 -2.56 c-0.12 0.84 -2.16 2.96 -5.76 2.96 c-4.76 0 -10.28 -3.44 -10.28 -10.84 c0 -7.16 5.52 -10.72 10.28 -10.72 c3.6 0 5.64 2.24 5.76 2.68 l0 -9.8 z M128.64 35.32 c2.8 0 5.24 -1.92 5.24 -5.76 c0 -3.72 -2.44 -5.64 -5.24 -5.64 c-2.88 0 -5.52 1.96 -5.52 5.64 c0 3.8 2.64 5.76 5.52 5.76 z M153.72 18.84 c4.72 0 11.24 3.56 10 12.76 l-15.12 0 c0.72 2.6 2.88 3.96 5.68 3.96 c2.6 0 3.6 -0.6 5.08 -1.4 l3.16 3.08 c-1.8 1.88 -4.36 3.16 -8.44 3.16 c-5.2 0 -11.28 -3.56 -11.28 -10.72 c0 -7.28 6.2 -10.84 10.92 -10.84 z M153.72 23.72 c-2.08 0 -4.28 1.28 -5.04 3.84 l10 0 c-0.64 -2.56 -2.92 -3.84 -4.96 -3.84 z M180.28 18.88 c0.52 0 1 0 1.52 0.12 l0 5.48 c-0.48 -0.12 -0.96 -0.12 -1.36 -0.12 c-3.84 0 -7 2.76 -7.36 6.76 l0 8.88 l-5.72 0 l0 -20.8 l5.72 0 l0 5.2 c0.92 -3.16 3.44 -5.52 7.2 -5.52 z"/>
  </g>
  <path d="M 66.106 280.227 L 66.104 278.578 L 68.146 278.578 C 70.442 278.578 72.069 277.76 73.028 276.125 C 73.614 275.144 73.904 272.945 73.899 269.527 L 73.844 230.472 C 73.839 226.697 73.462 224.334 72.713 223.383 C 71.67 222.075 70.121 221.421 68.066 221.421 L 66.024 221.421 L 66.021 219.772 L 88.123 219.772 C 96.238 219.772 102.412 220.798 106.646 222.849 C 110.879 224.899 114.287 228.317 116.87 233.103 C 119.453 237.888 120.749 243.416 120.757 249.687 C 120.769 258.098 118.483 265.128 113.9 270.776 C 108.757 277.076 100.914 280.227 90.37 280.227 L 66.106 280.227 Z M 81.595 275.858 C 84.986 276.69 87.83 277.106 90.126 277.106 C 96.319 277.106 101.454 274.684 105.531 269.839 C 109.608 264.995 111.641 258.426 111.629 250.134 C 111.617 241.782 109.566 235.198 105.475 230.383 C 101.384 225.568 96.136 223.16 89.729 223.16 C 87.327 223.16 84.592 223.591 81.523 224.453 L 81.595 275.858 Z" style="white-space: pre; fill: #ffffff"/>
</svg>
